<svg xmlns="http://www.w3.org/2000/svg" viewBox="0 0 117.5 106.39"><title>circle</title><path d="M562.31,1271.82a9,9,0,0,1-6-2.24l-34.69-30.41a52.19,52.19,0,0,1-16.52-26.72c-1.89-7.7-1.18-12.49-.92-13.79,1.66-18.53,16.7-33.23,34.84-33.23a33.64,33.64,0,0,1,23.35,9.28,35,35,0,0,1,23.75-9.28c18.13,0,33.17,14.7,35,34.18.12.41.79,5.17-1.08,12.82a52,52,0,0,1-16.42,26.72l-35.43,30.47A9,9,0,0,1,562.31,1271.82Zm-23.25-88.35c-10.09,0-16.19,9-17,17.81a18.27,18.27,0,0,0,.62,6.86,34.12,34.12,0,0,0,10.88,17.48l28.8,25.25,29.37-25.25a34.07,34.07,0,0,0,10.83-17.39,19.8,19.8,0,0,0,.72-6.27c-.91-9.44-7-18.41-17.12-18.41a17,17,0,0,0-15.6,10.21,9,9,0,0,1-8.26,5.4h0a9,9,0,0,1-8.26-5.42C551.26,1187.28,545.62,1183.47,539.06,1183.47Z" transform="translate(-503.83 -1165.43)" style="fill:#ff5551"/></svg>